
          <svg data-logo="logo" xmlns="http://www.w3.org/2000/svg" viewBox="0 0 318 26">
            <g id="logogram" transform="translate(0, 13) rotate(0)"></g>
            <g id="logotype" transform="translate(0, 1)"><path fill="#ffffff" d="M11.78 24L2.48 24L2.48 0.38L11.78 0.38Q15.63 0.38 18.43 1.80Q21.23 3.23 22.75 5.89Q24.27 8.54 24.27 12.19L24.27 12.19Q24.27 15.80 22.74 18.46Q21.20 21.11 18.40 22.56Q15.60 24 11.78 24L11.78 24ZM7.41 4.57L7.41 19.80L11.78 19.80Q15.46 19.80 17.37 17.71Q19.28 15.63 19.28 12.19L19.28 12.19Q19.28 8.72 17.37 6.65Q15.46 4.57 11.78 4.57L11.78 4.57L7.41 4.57ZM31.97 24L27.04 24L27.04 0.38L39.26 0.38Q43.05 0.38 45.19 2.08Q47.34 3.79 47.34 6.79L47.34 6.79Q47.34 8.69 46.45 10.03Q45.56 11.37 43.95 11.92L43.95 11.92L43.95 12.07Q45.56 12.07 46.45 12.93Q47.34 13.79 47.34 15.51L47.34 15.51L47.34 24L42.38 24L42.38 15.02L31.97 15.02L31.97 24ZM31.97 4.66L31.97 10.73L38.94 10.73Q40.63 10.73 41.55 9.94Q42.47 9.15 42.47 7.70L42.47 7.70Q42.47 6.24 41.55 5.45Q40.63 4.66 38.94 4.66L38.94 4.66L31.97 4.66ZM56.00 24L51.04 24L51.04 0.38L56.00 0.38L56.00 24ZM70.79 4.69L70.79 24L65.95 24L65.95 4.69L58.28 4.69L58.28 0.38L78.46 0.38L78.46 4.69L70.79 4.69ZM90.80 24.35L90.80 24.35Q87.62 24.35 85.25 23.37Q82.89 22.40 81.61 20.37Q80.33 18.34 80.33 15.19L80.33 15.19L80.33 0.38L85.37 0.38L85.37 14.49Q85.37 16.97 86.70 18.36Q88.03 19.74 90.94 19.74L90.94 19.74Q93.92 19.74 95.21 18.28Q96.51 16.82 96.51 14.52L96.51 14.52L96.51 0.38L101.44 0.38L101.44 15.25Q101.44 19.80 98.61 22.07Q95.78 24.35 90.80 24.35ZM129.56 19.68L129.56 24L112.32 24L112.32 0.38L129.56 0.38L129.56 4.69L117.25 4.69L117.25 9.65L128.60 9.65L128.60 13.85L117.25 13.85L117.25 19.68L129.56 19.68ZM154.85 0.38L154.85 24L149.57 24L137.29 7.61L137.17 7.61L137.17 24L132.45 24L132.45 0.38L137.55 0.38L150.00 17.12L150.12 17.12L150.12 0.38L154.85 0.38ZM169.49 4.69L169.49 24L164.65 24L164.65 4.69L156.97 4.69L156.97 0.38L177.16 0.38L177.16 4.69L169.49 4.69ZM196.52 19.68L196.52 24L179.29 24L179.29 0.38L196.52 0.38L196.52 4.69L184.22 4.69L184.22 9.65L195.56 9.65L195.56 13.85L184.22 13.85L184.22 19.68L196.52 19.68ZM204.34 24L199.41 24L199.41 0.38L211.63 0.38Q215.42 0.38 217.57 2.08Q219.71 3.79 219.71 6.79L219.71 6.79Q219.71 8.69 218.82 10.03Q217.93 11.37 216.33 11.92L216.33 11.92L216.33 12.07Q217.93 12.07 218.82 12.93Q219.71 13.79 219.71 15.51L219.71 15.51L219.71 24L214.75 24L214.75 15.02L204.34 15.02L204.34 24ZM204.34 4.66L204.34 10.73L211.31 10.73Q213.00 10.73 213.92 9.94Q214.84 9.15 214.84 7.70L214.84 7.70Q214.84 6.24 213.92 5.45Q213.00 4.66 211.31 4.66L211.31 4.66L204.34 4.66ZM228.20 24L223.27 24L223.27 0.38L234.50 0.38Q238.50 0.38 240.71 2.39Q242.93 4.40 242.93 7.90L242.93 7.90Q242.93 11.37 240.71 13.40Q238.50 15.43 234.50 15.43L234.50 15.43L228.20 15.43L228.20 24ZM228.20 4.66L228.20 11.14L234.21 11.14Q236.05 11.14 237.01 10.28Q237.97 9.42 237.97 7.90L237.97 7.90Q237.97 6.35 237.01 5.51Q236.05 4.66 234.21 4.66L234.21 4.66L228.20 4.66ZM250.07 24L245.15 24L245.15 0.38L257.37 0.38Q261.16 0.38 263.30 2.08Q265.45 3.79 265.45 6.79L265.45 6.79Q265.45 8.69 264.56 10.03Q263.67 11.37 262.06 11.92L262.06 11.92L262.06 12.07Q263.67 12.07 264.56 12.93Q265.45 13.79 265.45 15.51L265.45 15.51L265.45 24L260.49 24L260.49 15.02L250.07 15.02L250.07 24ZM250.07 4.66L250.07 10.73L257.05 10.73Q258.74 10.73 259.66 9.94Q260.57 9.15 260.57 7.70L260.57 7.70Q260.57 6.24 259.66 5.45Q258.74 4.66 257.05 4.66L257.05 4.66L250.07 4.66ZM274.11 24L269.15 24L269.15 0.38L274.11 0.38L274.11 24ZM287.50 24.35L287.50 24.35Q282.74 24.35 279.91 22.26Q277.08 20.18 276.82 16.48L276.82 16.48L281.90 16.48Q282.16 18.40 283.63 19.38Q285.10 20.35 287.70 20.35L287.70 20.35Q290.00 20.35 291.17 19.61Q292.34 18.87 292.34 17.41L292.34 17.41Q292.34 16.27 291.59 15.60Q290.85 14.93 289.19 14.58L289.19 14.58L284.32 13.59Q281.02 12.89 279.39 11.27Q277.75 9.65 277.75 7.05L277.75 7.05Q277.75 3.76 280.25 1.89Q282.74 0.02 287.03 0.02L287.03 0.02Q291.37 0.02 294.03 1.98Q296.68 3.93 297.00 7.43L297.00 7.43L291.93 7.43Q291.08 3.88 286.77 3.88L286.77 3.88Q284.81 3.88 283.70 4.57Q282.60 5.27 282.60 6.59L282.60 6.59Q282.60 8.60 285.48 9.18L285.48 9.18L290.56 10.23Q294.00 10.93 295.59 12.58Q297.18 14.23 297.18 17.03L297.18 17.03Q297.18 20.50 294.66 22.43Q292.13 24.35 287.50 24.35ZM316.98 19.68L316.98 24L299.75 24L299.75 0.38L316.98 0.38L316.98 4.69L304.67 4.69L304.67 9.65L316.02 9.65L316.02 13.85L304.67 13.85L304.67 19.68L316.98 19.68Z"/></g>
            
          </svg>
        